<mxfile host="app.diagrams.net" modified="2024-07-17T14:22:12.408Z" agent="Mozilla/5.0 (Macintosh; Intel Mac OS X 10_15_7) AppleWebKit/537.36 (KHTML, like Gecko) Chrome/126.0.0.0 Safari/537.36" etag="y2pP3COCXwFSJm0OG4A-" version="24.6.4" type="github">
  <diagram name="第 1 页" id="54AbXqlcH1Gsan5hpLr7">
    <mxGraphModel dx="954" dy="606" grid="1" gridSize="10" guides="1" tooltips="1" connect="1" arrows="1" fold="1" page="1" pageScale="1" pageWidth="827" pageHeight="1169" math="0" shadow="0">
      <root>
        <mxCell id="0" />
        <mxCell id="1" parent="0" />
        <mxCell id="UwrHu9n1EhoDG0dlT5wb-9" style="edgeStyle=orthogonalEdgeStyle;rounded=0;orthogonalLoop=1;jettySize=auto;html=1;exitX=0.5;exitY=1;exitDx=0;exitDy=0;entryX=0.5;entryY=0;entryDx=0;entryDy=0;" edge="1" parent="1" source="UwrHu9n1EhoDG0dlT5wb-1" target="UwrHu9n1EhoDG0dlT5wb-6">
          <mxGeometry relative="1" as="geometry" />
        </mxCell>
        <mxCell id="UwrHu9n1EhoDG0dlT5wb-10" style="edgeStyle=orthogonalEdgeStyle;rounded=0;orthogonalLoop=1;jettySize=auto;html=1;exitX=0.5;exitY=1;exitDx=0;exitDy=0;" edge="1" parent="1" source="UwrHu9n1EhoDG0dlT5wb-1" target="UwrHu9n1EhoDG0dlT5wb-8">
          <mxGeometry relative="1" as="geometry" />
        </mxCell>
        <mxCell id="UwrHu9n1EhoDG0dlT5wb-1" value="活动页面可视化搭建平台" style="rounded=0;whiteSpace=wrap;html=1;" vertex="1" parent="1">
          <mxGeometry x="320" y="150" width="190" height="60" as="geometry" />
        </mxCell>
        <mxCell id="UwrHu9n1EhoDG0dlT5wb-6" value="基础应用功能" style="rounded=0;whiteSpace=wrap;html=1;" vertex="1" parent="1">
          <mxGeometry x="170" y="270" width="150" height="60" as="geometry" />
        </mxCell>
        <mxCell id="UwrHu9n1EhoDG0dlT5wb-13" value="" style="edgeStyle=orthogonalEdgeStyle;rounded=0;orthogonalLoop=1;jettySize=auto;html=1;" edge="1" parent="1" source="UwrHu9n1EhoDG0dlT5wb-8" target="UwrHu9n1EhoDG0dlT5wb-12">
          <mxGeometry relative="1" as="geometry" />
        </mxCell>
        <mxCell id="UwrHu9n1EhoDG0dlT5wb-8" value="提高用户体验" style="rounded=0;whiteSpace=wrap;html=1;" vertex="1" parent="1">
          <mxGeometry x="520" y="270" width="150" height="60" as="geometry" />
        </mxCell>
        <mxCell id="UwrHu9n1EhoDG0dlT5wb-12" value="提出新老缓存方案改进Keep-alive组件" style="rounded=0;whiteSpace=wrap;html=1;" vertex="1" parent="1">
          <mxGeometry x="520" y="370" width="150" height="60" as="geometry" />
        </mxCell>
      </root>
    </mxGraphModel>
  </diagram>
</mxfile>
